<?xml version="1.0" standalone="no"?>
<!DOCTYPE svg PUBLIC "-//W3C//DTD SVG 20010904//EN"
 "http://www.w3.org/TR/2001/REC-SVG-20010904/DTD/svg10.dtd">
<svg version="1.0" xmlns="http://www.w3.org/2000/svg"
 width="881.000000pt" height="283.000000pt" viewBox="0 0 881.000000 283.000000"
 preserveAspectRatio="xMidYMid meet">

<g transform="translate(0.000000,283.000000) scale(0.100000,-0.100000)"
fill="#000000" stroke="none">
<path d="M1555 2114 c-16 -2 -67 -14 -112 -25 -76 -20 -85 -25 -147 -88 -36
-36 -78 -84 -93 -106 -14 -22 -30 -42 -34 -45 -16 -11 -87 -176 -99 -230 -7
-30 -17 -65 -23 -77 -17 -37 -1 -226 29 -338 42 -161 115 -275 284 -445 30
-30 183 -140 195 -140 2 0 30 -18 61 -40 32 -22 60 -40 64 -40 4 0 42 -20 86
-45 43 -25 102 -54 129 -65 28 -10 82 -32 120 -48 82 -34 269 -87 340 -97 28
-4 55 -10 60 -14 26 -21 535 -57 535 -38 0 4 24 7 53 7 68 0 206 24 313 56
140 40 296 126 279 153 -3 5 -1 12 5 16 13 8 13 25 -1 25 -5 0 -8 -4 -5 -9 13
-20 -146 -121 -190 -121 -8 0 -14 -5 -14 -11 0 -6 -7 -9 -15 -6 -8 4 -17 2
-21 -4 -3 -6 -12 -8 -20 -5 -8 3 -14 1 -14 -5 0 -6 -8 -9 -17 -8 -10 1 -26 -1
-35 -6 -10 -4 -24 -5 -32 -2 -8 3 -16 1 -18 -4 -2 -6 -34 -11 -71 -12 -37 -1
-67 -6 -67 -11 0 -5 -77 -6 -182 -2 -259 10 -252 9 -256 34 -2 12 -8 22 -14
22 -6 0 -8 9 -5 20 3 11 1 20 -5 20 -6 0 -7 8 -4 17 4 9 2 19 -4 23 -13 8 -30
120 -30 191 1 54 0 57 -32 70 -32 13 -118 85 -118 98 0 4 13 22 29 40 114 127
134 414 48 668 -91 272 -392 540 -682 608 -63 15 -219 26 -270 19z m405 -155
c35 -5 69 -14 75 -18 5 -4 31 -15 58 -25 74 -27 196 -123 218 -171 11 -24 32
-58 40 -65 8 -7 34 -81 53 -151 19 -69 9 -240 -15 -255 -5 -3 -9 -12 -9 -21 0
-20 -68 -163 -86 -181 -21 -21 -18 -32 39 -112 62 -90 87 -133 87 -152 0 -7
-15 -23 -33 -35 -17 -12 -58 -40 -90 -61 -32 -22 -60 -42 -63 -45 -6 -5 24
-106 36 -122 4 -5 11 -33 15 -61 7 -52 7 -52 49 -58 47 -7 166 -73 166 -92 0
-9 -10 -9 -42 -2 -64 15 -209 58 -243 72 -16 7 -47 18 -67 25 -45 15 -190 93
-236 128 -40 30 -34 43 21 43 77 0 237 41 237 60 0 5 -19 32 -42 60 -24 29
-49 62 -55 74 -26 45 -82 101 -90 90 -21 -30 -225 -22 -288 10 -17 9 -35 16
-42 16 -17 0 -144 88 -171 119 -92 104 -161 320 -146 459 4 36 18 91 31 121
13 31 30 68 36 84 7 15 15 27 19 27 5 0 8 7 8 15 0 9 7 18 15 21 8 4 13 9 10
13 -11 19 155 141 227 167 86 30 183 39 278 23z m510 -1364 c6 -8 9 -27 6 -42
-6 -32 12 -67 87 -162 45 -59 58 -91 37 -91 -5 0 -10 6 -10 13 0 6 -13 26 -28
44 -15 17 -47 60 -72 94 -26 36 -55 65 -72 71 -48 17 -34 88 18 88 12 0 27 -7
34 -15z"/>
<path d="M1843 1198 c-11 -15 -47 -89 -62 -130 -9 -25 -8 -28 10 -28 11 0 27
7 35 15 21 21 63 19 72 -2 4 -10 13 -19 21 -21 18 -4 10 36 -21 115 -24 59
-38 72 -55 51z m23 -95 c-11 -11 -19 6 -11 24 8 17 8 17 12 0 3 -10 2 -21 -1
-24z"/>
<path d="M1967 1203 c-4 -3 -7 -42 -7 -85 0 -77 0 -78 25 -78 25 0 25 1 25 85
0 76 -2 85 -18 85 -10 0 -22 -3 -25 -7z"/>
<path d="M2340 815 c-13 -14 -28 -25 -34 -25 -21 0 -120 -96 -108 -104 14 -9
18 -7 107 58 75 54 86 65 82 80 -6 19 -24 16 -47 -9z"/>
<path d="M6442 1524 c-28 -19 -29 -63 -2 -92 29 -31 103 -31 124 0 21 30 20
71 -2 91 -24 21 -90 22 -120 1z"/>
<path d="M3517 1504 c-4 -4 -7 -128 -7 -276 l0 -268 65 0 65 0 -2 273 -3 272
-55 3 c-31 2 -59 0 -63 -4z"/>
<path d="M6230 1420 l0 -89 -35 21 c-74 43 -183 9 -242 -75 -24 -34 -27 -47
-24 -110 3 -94 27 -148 82 -183 23 -14 59 -29 79 -31 42 -6 102 11 126 34 14
14 16 14 21 -6 5 -18 13 -21 59 -21 l54 0 0 275 0 275 -60 0 -60 0 0 -90z
m-19 -185 c47 -44 26 -142 -38 -173 -32 -15 -36 -15 -68 3 -41 21 -61 73 -51
128 13 69 101 92 157 42z"/>
<path d="M2950 1220 l0 -260 183 0 c173 0 186 1 228 23 52 28 69 56 69 115 0
58 -31 111 -73 125 -8 2 -5 10 7 22 33 33 44 73 34 119 -11 49 -30 72 -82 97
-34 16 -63 19 -203 19 l-163 0 0 -260z m320 100 c0 -40 -26 -51 -113 -48 l-72
3 0 45 0 45 65 5 c84 7 120 -8 120 -50z m19 -176 c28 -35 26 -48 -6 -74 -23
-18 -38 -20 -112 -18 l-86 3 -3 34 c-2 19 -1 44 2 57 6 23 10 24 95 24 85 0
91 -1 110 -26z"/>
<path d="M4825 1464 c-95 -35 -139 -126 -99 -210 24 -50 67 -71 231 -114 49
-12 64 -41 37 -71 -13 -15 -31 -19 -81 -19 -35 0 -63 4 -63 10 0 6 -8 10 -17
10 -10 0 -33 9 -51 20 -18 11 -34 20 -36 20 -7 0 -25 -56 -28 -85 -3 -28 0
-31 52 -49 79 -28 232 -27 285 0 55 29 77 64 83 127 4 49 1 57 -27 89 -30 35
-49 42 -222 88 -41 11 -54 32 -39 60 17 32 120 55 135 30 4 -6 10 -8 15 -5 4
3 21 -2 36 -10 16 -8 34 -15 41 -15 13 0 46 88 37 101 -10 18 -110 39 -178 38
-39 0 -89 -7 -111 -15z"/>
<path d="M5208 1403 c-3 -46 -4 -48 -35 -51 -32 -3 -33 -5 -33 -48 0 -44 0
-44 35 -44 l35 0 0 -104 c0 -122 7 -145 52 -177 27 -20 46 -24 100 -24 81 0
91 8 80 61 -8 37 -10 39 -41 36 -57 -6 -71 17 -71 120 l0 88 50 0 50 0 0 45 0
45 -50 0 -50 0 0 50 0 50 -59 0 -60 0 -3 -47z"/>
<path d="M4357 1364 c-93 -18 -157 -93 -157 -181 0 -95 50 -174 123 -194 54
-15 153 -6 177 16 34 31 33 -6 -2 -55 -25 -35 -117 -40 -183 -11 -26 12 -49
21 -50 21 -1 0 -10 -21 -20 -46 -16 -44 -16 -46 1 -59 34 -25 108 -40 185 -38
88 1 124 16 167 69 44 54 56 107 49 227 -4 56 -7 135 -7 175 l0 72 -55 0 c-42
0 -55 -3 -55 -15 0 -17 -11 -20 -25 -6 -6 5 -28 16 -50 23 -32 11 -51 12 -98
2z m137 -126 c34 -28 38 -35 33 -66 -9 -51 -32 -80 -72 -88 -47 -9 -82 2 -111
33 -30 32 -31 66 -3 105 40 56 97 62 153 16z"/>
<path d="M3842 1355 c-93 -40 -136 -104 -133 -195 2 -82 35 -143 93 -175 157
-86 348 10 348 175 0 68 -19 109 -71 153 -65 57 -164 74 -237 42z m153 -127
c23 -27 26 -39 22 -77 -10 -89 -97 -129 -147 -69 -48 57 -49 110 -5 154 37 37
95 34 130 -8z"/>
<path d="M6773 1362 c-12 -4 -43 -22 -68 -40 -155 -110 -84 -345 112 -368 99
-12 199 39 227 115 42 119 4 230 -97 276 -52 25 -124 31 -174 17z m125 -114
c71 -76 38 -192 -55 -192 -29 0 -42 7 -65 35 -26 29 -29 40 -25 79 9 81 97
128 145 78z"/>
<path d="M5482 1206 c3 -168 8 -183 71 -230 38 -28 122 -33 169 -8 30 16 38
17 42 6 4 -10 24 -14 67 -14 l62 0 -6 198 c-4 108 -7 198 -7 200 0 2 -28 2
-62 0 l-63 -3 0 -122 c0 -115 -1 -123 -24 -147 -14 -15 -35 -26 -50 -26 -59 1
-71 31 -71 179 l0 121 -66 0 -65 0 3 -154z"/>
<path d="M6440 1160 l0 -200 65 0 65 0 0 200 0 200 -65 0 -65 0 0 -200z"/>
</g>
</svg>
