<?xml version="1.0" standalone="no"?>
<!DOCTYPE svg PUBLIC "-//W3C//DTD SVG 20010904//EN"
 "http://www.w3.org/TR/2001/REC-SVG-20010904/DTD/svg10.dtd">
<svg version="1.0" xmlns="http://www.w3.org/2000/svg"
 width="858.000000pt" height="291.000000pt" viewBox="0 0 858.000000 291.000000"
 preserveAspectRatio="xMidYMid meet">

<g transform="translate(0.000000,291.000000) scale(0.100000,-0.100000)"
fill="#000000" stroke="none">
<path d="M1535 2134 c-83 -11 -174 -39 -213 -66 -90 -62 -201 -225 -247 -361
-106 -319 -3 -666 262 -881 137 -110 438 -279 643 -359 246 -97 478 -140 755
-138 315 1 598 71 713 175 29 26 57 76 42 76 -5 0 -10 -6 -10 -13 0 -23 -63
-75 -128 -107 -129 -62 -344 -101 -560 -99 -180 1 -212 7 -234 45 -26 44 -51
178 -46 246 l4 59 -65 43 c-36 24 -74 53 -85 64 l-19 21 -56 -39 c-31 -22 -69
-50 -85 -63 l-28 -23 20 -60 c11 -32 24 -76 27 -97 5 -32 12 -40 38 -50 56
-19 187 -88 187 -98 0 -13 -11 -12 -98 11 -86 22 -197 59 -287 97 -72 30 -255
131 -255 141 0 4 30 8 68 9 59 2 217 35 230 48 5 5 -59 93 -124 171 l-43 50
-64 -9 c-131 -20 -296 37 -406 139 -80 74 -115 128 -146 227 -62 195 -12 408
128 549 242 245 637 198 829 -97 60 -92 81 -175 76 -298 -5 -116 -33 -200 -98
-297 l-37 -54 76 -114 76 -114 37 42 c59 66 82 155 82 310 0 97 -5 144 -22
210 -25 94 -96 245 -150 318 -128 173 -330 312 -522 361 -77 19 -212 32 -265
25z m869 -1473 c11 -12 15 -27 11 -42 -4 -19 11 -47 65 -123 67 -96 84 -131
58 -120 -7 2 -44 47 -83 99 -40 54 -77 95 -87 95 -17 0 -58 45 -58 63 0 19 33
47 55 47 12 0 30 -8 39 -19z"/>
<path d="M3970 1558 c-24 -26 -25 -46 -4 -76 22 -32 88 -31 109 2 44 66 -50
133 -105 74z"/>
<path d="M4590 1285 l0 -265 55 0 55 0 0 48 c0 41 5 53 31 78 l31 29 24 -30
c13 -16 39 -51 57 -77 l32 -47 63 -1 c34 0 62 2 62 4 0 3 -34 52 -75 109 -41
57 -75 108 -75 114 0 5 10 18 21 29 12 10 44 45 71 77 l50 57 -59 0 -58 0 -82
-75 c-45 -41 -84 -75 -87 -75 -3 0 -6 65 -6 145 l0 145 -55 0 -55 0 0 -265z"/>
<path d="M5610 1285 l0 -265 55 0 55 0 0 265 0 265 -55 0 -55 0 0 -265z"/>
<path d="M2994 1497 c-59 -28 -116 -91 -132 -146 -28 -92 -5 -199 56 -265 26
-28 114 -76 139 -76 7 0 34 -22 60 -49 48 -49 96 -71 157 -71 31 0 126 47 126
63 0 5 -9 22 -21 39 -19 27 -23 28 -38 14 -34 -31 -76 -39 -110 -21 -17 8 -31
18 -31 20 0 3 15 11 33 18 150 63 204 262 107 395 -44 62 -116 94 -215 99 -69
4 -87 1 -131 -20z m168 -77 c45 -13 94 -66 108 -120 41 -151 -165 -267 -264
-149 -70 83 -48 211 44 260 40 22 60 23 112 9z"/>
<path d="M5070 1264 l0 -245 184 3 c168 3 187 5 213 24 72 52 75 141 8 202
l-37 34 20 21 c46 51 52 84 24 136 -33 62 -65 71 -249 71 l-163 0 0 -246z
m296 141 c21 -29 14 -67 -16 -82 -15 -8 -53 -12 -95 -11 l-70 3 -3 44 c-5 72
-3 74 89 69 66 -3 83 -7 95 -23z m30 -210 c21 -33 11 -73 -22 -85 -14 -6 -61
-10 -104 -10 -74 0 -80 2 -85 23 -4 17 -2 72 4 95 1 1 44 2 96 2 90 0 95 -1
111 -25z"/>
<path d="M3798 1402 l-48 -3 0 -108 c0 -96 -3 -112 -23 -142 -12 -18 -33 -36
-47 -39 -32 -8 -78 7 -90 30 -6 10 -10 73 -10 139 l0 121 -56 0 -56 0 4 -142
c3 -162 16 -199 78 -231 47 -24 126 -19 168 12 l32 22 0 -21 c0 -19 5 -21 53
-18 l52 3 3 100 c1 55 -1 141 -5 190 l-8 90 -47 -3z"/>
<path d="M4265 1391 c-93 -43 -134 -138 -105 -243 39 -139 234 -185 343 -81
15 15 27 30 27 34 0 4 -19 16 -42 28 -42 20 -43 20 -63 2 -46 -44 -123 -34
-150 20 -58 111 53 220 145 143 l31 -27 39 18 c47 21 49 32 13 68 -60 57 -162
73 -238 38z"/>
<path d="M5900 1388 c-24 -13 -57 -40 -74 -61 -25 -31 -31 -49 -34 -100 -4
-79 24 -138 86 -182 39 -27 52 -30 115 -30 58 0 80 5 115 25 91 52 123 176 71
271 -48 89 -183 125 -279 77z m159 -94 c81 -68 19 -209 -83 -190 -48 9 -69 37
-74 101 -4 50 -2 57 26 85 39 39 88 41 131 4z"/>
<path d="M6355 1391 c-48 -22 -69 -44 -90 -94 -27 -64 -13 -150 33 -200 50
-56 152 -73 222 -37 l40 20 0 -25 c0 -37 -16 -62 -50 -80 -46 -24 -92 -19
-182 19 -12 6 -21 0 -32 -23 -23 -44 -21 -50 27 -71 100 -44 233 -31 289 27
52 54 58 86 58 294 0 170 -2 190 -16 185 -9 -3 -31 -6 -50 -6 -27 0 -34 -4
-34 -20 0 -25 -2 -25 -46 5 -45 31 -111 33 -169 6z m174 -97 c26 -21 31 -33
31 -69 0 -36 -5 -48 -31 -69 -60 -50 -151 -24 -165 48 -6 37 14 88 43 105 34
20 90 13 122 -15z"/>
<path d="M3966 1384 c-8 -20 -8 -177 1 -281 l6 -83 48 0 49 0 0 190 0 190 -49
0 c-35 0 -51 -4 -55 -16z"/>
<path d="M1794 1223 c-4 -10 -17 -43 -30 -73 -22 -55 -23 -79 -1 -49 7 9 27
20 44 23 26 6 34 3 45 -13 7 -12 18 -21 25 -21 15 0 2 46 -29 102 -26 47 -45
58 -54 31z m36 -58 c0 -15 -6 -25 -14 -25 -19 0 -28 14 -20 34 10 25 34 19 34
-9z"/>
<path d="M1920 1160 c0 -56 3 -70 15 -70 12 0 15 14 15 70 0 56 -3 70 -15 70
-12 0 -15 -14 -15 -70z"/>
<path d="M2221 826 c-40 -29 -72 -56 -70 -62 2 -5 9 -8 14 -6 18 6 155 107
155 115 0 16 -29 3 -99 -47z"/>
</g>
</svg>
